<svg width="24" height="24" viewBox="0 0 24 24" fill="none" xmlns="http://www.w3.org/2000/svg">
<path fill-rule="evenodd" clip-rule="evenodd" d="M5.125 8.80645H4.5C3.11937 8.80645 2 7.53542 2 5.96774L12 1L22 5.96774C22 7.53542 20.8806 8.80645 19.5 8.80645H18.875V18.7419H16.375V8.80645H13.25V18.7419H10.75V8.80645H7.625V18.7419H5.125V8.80645ZM13.25 5.25806C13.25 4.47458 12.69 3.83871 12 3.83871C11.31 3.83871 10.75 4.47458 10.75 5.25806C10.75 6.04155 11.31 6.67742 12 6.67742C12.69 6.67742 13.25 6.04155 13.25 5.25806Z" fill="#262626"/>
<path d="M21.375 20.1613V23H2.625V20.1613H21.375Z" fill="#262626"/>
</svg>
