<svg width="32" height="32" viewBox="0 0 32 32" fill="none" xmlns="http://www.w3.org/2000/svg">
<path d="M0 16C0 7.16344 7.16344 0 16 0C24.8366 0 32 7.16344 32 16C32 24.8366 24.8366 32 16 32C7.16344 32 0 24.8366 0 16Z" fill="#7E5B01"/>
<path fill-rule="evenodd" clip-rule="evenodd" d="M18.7499 15.4387C17.7375 15.4387 16.9166 16.2528 16.9166 17.2569V18.6205H8.66666V11.3478H20.5832V15.4387H18.7499ZM15.3028 14.4742C15.3028 14.2778 15.3028 14.2228 15.1167 14.2228H13.8898C13.9214 13.9401 13.9847 13.7519 14.1153 13.6224C14.262 13.481 14.432 13.426 14.6616 13.426C14.998 13.426 15.3267 13.536 15.5402 13.6692C15.6273 13.7164 15.6828 13.7124 15.7222 13.6146L15.9161 13.2178C15.9596 13.1078 15.944 13.061 15.8689 13.0215C15.5402 12.841 15.1126 12.7115 14.6813 12.7115C14.2221 12.7115 13.854 12.8137 13.5731 13.0333C13.2248 13.3083 13.0625 13.6537 12.9993 14.2228H12.5794C12.3938 14.2228 12.3938 14.2778 12.3938 14.4742V14.6032C12.3938 14.8001 12.3938 14.8469 12.5794 14.8469H12.9713V15.2592H12.5794C12.3938 15.2592 12.3938 15.3141 12.3938 15.5141V15.6319C12.3938 15.8205 12.3938 15.8714 12.5794 15.8714H13.007C13.0662 16.3264 13.1973 16.6405 13.4305 16.8605C13.7197 17.1473 14.1272 17.2569 14.7643 17.2569C15.081 17.2569 15.5242 17.1746 15.8015 17.0528C15.8964 17.0096 15.8964 16.9509 15.8689 16.8255L15.7896 16.4996C15.7616 16.3819 15.7378 16.3423 15.6314 16.3819C15.3977 16.4796 15.1048 16.5464 14.8239 16.5464C14.4439 16.5464 14.234 16.4564 14.0992 16.2955C14.0122 16.1973 13.953 16.0637 13.9173 15.8714H15.1167C15.3028 15.8714 15.3028 15.8205 15.3028 15.6319V15.5141C15.3028 15.3141 15.3028 15.2592 15.1167 15.2592H13.854V14.8469H15.1167C15.3028 14.8469 15.3028 14.8001 15.3028 14.6032V14.4742Z" fill="white"/>
<path d="M22.4167 17.7115H17.8334V17.257C17.8334 16.7552 18.244 16.3479 18.75 16.3479H23.3333V16.8024C23.3333 17.3043 22.9227 17.7115 22.4167 17.7115Z" fill="white"/>
<path d="M17.8334 19.5297H22.4167C22.9227 19.5297 23.3333 19.1224 23.3333 18.6206V18.1661H18.75C18.244 18.1661 17.8334 18.5733 17.8334 19.0751V19.5297Z" fill="white"/>
<path d="M22.4167 21.3478H17.8334V20.8933C17.8334 20.3915 18.244 19.9842 18.75 19.9842H23.3333V20.4388C23.3333 20.9406 22.9227 21.3478 22.4167 21.3478Z" fill="white"/>
</svg>
