<svg width="32" height="32" viewBox="0 0 32 32" fill="none" xmlns="http://www.w3.org/2000/svg">
<path d="M0 16C0 7.16344 7.16344 0 16 0C24.8366 0 32 7.16344 32 16C32 24.8366 24.8366 32 16 32C7.16344 32 0 24.8366 0 16Z" fill="#244858"/>
<path d="M14.3441 11.8025L11.9785 9.33334L9.61291 11.8025C9.93936 12.1432 10.4693 12.1432 10.7957 11.8025L11.5603 11.0044V13.2839H12.3968V11.0044L13.1613 11.8025C13.4878 12.1432 14.0177 12.1432 14.3441 11.8025Z" fill="white"/>
<path d="M17.6561 20.1975L20.0217 22.6666L22.3873 20.1975C22.0609 19.8568 21.531 19.8568 21.2045 20.1975L20.4399 20.9955V18.716H19.6035V20.9955L18.8389 20.1975C18.5124 19.8568 17.9825 19.8568 17.6561 20.1975Z" fill="white"/>
<path fill-rule="evenodd" clip-rule="evenodd" d="M15.2904 14.2716H8.66667V21.1852C8.66667 22.0035 9.30207 22.6667 10.086 22.6667H16.7097V15.7531C16.7097 14.9349 16.0743 14.2716 15.2904 14.2716ZM14.248 16.5314L14.0554 16.9482C14.0185 17.0386 13.9589 17.0578 13.8761 17.0055C13.5965 16.8331 13.3027 16.7472 12.9956 16.7472C12.7657 16.7472 12.5845 16.8163 12.4515 16.9551C12.337 17.0751 12.2613 17.2855 12.2249 17.5877H13.4498C13.5364 17.5877 13.5894 17.603 13.6079 17.6336C13.6263 17.6652 13.6353 17.7378 13.6353 17.8534V17.9897C13.6353 18.0998 13.6263 18.1689 13.6079 18.1981C13.5894 18.2267 13.5364 18.241 13.4498 18.241H12.1899V18.6795H13.4498C13.5364 18.6795 13.5894 18.6948 13.6079 18.7255C13.6263 18.7571 13.6353 18.8297 13.6353 18.9452V19.0672C13.6353 19.1773 13.6263 19.2464 13.6079 19.2756C13.5894 19.3042 13.5364 19.3185 13.4498 19.3185H12.2519C12.2845 19.5102 12.3441 19.6588 12.4307 19.764C12.5731 19.9408 12.814 20.0297 13.1537 20.0297C13.429 20.0297 13.6996 19.9724 13.9655 19.8568C14.0162 19.8381 14.0516 19.8366 14.0725 19.8539C14.0933 19.8706 14.1103 19.9126 14.124 19.9793L14.1997 20.3245C14.2272 20.4489 14.204 20.5279 14.1311 20.561C13.8236 20.7047 13.4792 20.7768 13.0983 20.7768C12.4747 20.7768 12.0295 20.6376 11.7636 20.36C11.5431 20.1403 11.4031 19.7926 11.3435 19.3185H10.9172C10.8297 19.3185 10.7772 19.3042 10.7587 19.2756C10.7403 19.2464 10.7308 19.1773 10.7308 19.0672V18.9452C10.7308 18.8297 10.7403 18.7571 10.7587 18.7255C10.7772 18.6948 10.8297 18.6795 10.9172 18.6795H11.3094V18.241H10.9172C10.8297 18.241 10.7772 18.2267 10.7587 18.1981C10.7403 18.1689 10.7308 18.0998 10.7308 17.9897V17.8534C10.7308 17.7378 10.7403 17.6652 10.7587 17.6336C10.7772 17.603 10.8297 17.5877 10.9172 17.5877H11.3369C11.3965 17.0223 11.5867 16.6055 11.9079 16.3373C12.1833 16.1121 12.5523 16 13.016 16C13.4333 16 13.8279 16.1077 14.1997 16.323C14.2683 16.3615 14.2844 16.4307 14.248 16.5314Z" fill="white"/>
<path fill-rule="evenodd" clip-rule="evenodd" d="M15.2903 9.33338H21.914C22.6985 9.33338 23.3334 9.99659 23.3334 10.8149V17.7284H17.6559V15.7531C17.6559 14.3916 16.5947 13.284 15.2903 13.284V9.33338ZM20.2779 13.6188C20.6129 12.9102 20.8977 12.1388 21.1314 11.3058C21.1631 11.1863 21.1059 11.1265 20.9597 11.1265H20.4847C20.4114 11.1265 20.3593 11.1383 20.33 11.1621C20.2997 11.1863 20.2756 11.2342 20.2571 11.3058C20.1062 12.0149 19.8649 12.7808 19.5347 13.6045H19.4864C19.1514 12.7616 18.9111 11.9951 18.7639 11.3058C18.7455 11.2342 18.7214 11.1863 18.692 11.1621C18.6617 11.1383 18.6102 11.1265 18.5373 11.1265H18.0623C17.9152 11.1265 17.8579 11.1863 17.8896 11.3058C18.1196 12.1295 18.4034 12.9003 18.7431 13.6188H18.358C18.271 13.6188 18.218 13.6346 18.2 13.6653C18.1815 13.6969 18.1721 13.7695 18.1721 13.885V14.0213C18.1721 14.1314 18.1815 14.2006 18.2 14.2297C18.218 14.2583 18.271 14.2727 18.358 14.2727H19.0734V14.603H18.358C18.271 14.603 18.218 14.6183 18.2 14.6494C18.1815 14.6811 18.1721 14.7536 18.1721 14.8687V14.9907C18.1721 15.1013 18.1815 15.1704 18.2 15.1991C18.218 15.2277 18.271 15.2425 18.358 15.2425H19.0734V15.5655C19.0734 15.647 19.0876 15.7018 19.115 15.7309C19.1424 15.7596 19.195 15.7739 19.273 15.7739H19.7414C19.8195 15.7739 19.872 15.7596 19.8994 15.7309C19.9269 15.7018 19.9406 15.647 19.9406 15.5655V15.2425H20.6635C20.7506 15.2425 20.8036 15.2277 20.822 15.1991C20.84 15.1704 20.849 15.1013 20.849 14.9907V14.8687C20.849 14.7536 20.84 14.6811 20.822 14.6494C20.8036 14.6183 20.7506 14.603 20.6635 14.603H19.9406V14.287L19.9477 14.2727H20.6635C20.7506 14.2727 20.8036 14.2583 20.822 14.2297C20.84 14.2006 20.849 14.1314 20.849 14.0213V13.885C20.849 13.7695 20.84 13.6969 20.822 13.6653C20.8036 13.6346 20.7506 13.6188 20.6635 13.6188H20.2779Z" fill="white"/>
</svg>
