<svg width="32" height="32" viewBox="0 0 32 32" fill="none" xmlns="http://www.w3.org/2000/svg">
<path d="M0 16C0 7.16344 7.16344 0 16 0C24.8366 0 32 7.16344 32 16C32 24.8366 24.8366 32 16 32C7.16344 32 0 24.8366 0 16Z" fill="#DD1860"/>
<path fill-rule="evenodd" clip-rule="evenodd" d="M21.3052 18.8897C20.6475 19.0593 19.0255 19.4768 18.2115 19.6863C18.2119 19.6945 18.2124 19.7395 18.2133 19.8068C18.2211 20.3123 17.8086 20.7276 17.2985 20.7276H13.2688C12.7578 20.7276 12.3425 20.3169 12.3425 19.811H17.2985C17.2985 18.9718 16.611 18.2912 15.7631 18.2912C15.7631 18.2912 15.0966 18.3022 14.8395 18.2958C14.466 18.2871 14.0714 18.1853 13.7601 18.0721C13.4787 17.9695 12.9608 17.771 12.8792 17.7412C12.2426 17.513 10.7439 17.0835 8.66669 18.2912V21.4994C8.66669 21.4994 12.783 23.1387 14.2043 23.3111C15.0618 23.4156 15.8914 23.1365 16.7022 22.7991C17.4039 22.5072 23.3334 19.7248 23.3334 19.7248C23.0675 18.7953 22.2631 18.6423 21.3052 18.8897ZM16.0747 13.3831C16.6632 12.6434 17.4163 12.0485 18.2743 11.6255C17.8489 9.93939 16.0747 8.66666 16.0747 8.66666C16.0747 8.66666 14.3005 9.93984 13.8752 11.6255C14.7341 12.049 15.4862 12.6439 16.0747 13.3831ZM20.6581 11.8748C20.6915 14.0436 19.5636 16.1215 17.4516 17.0428C17.1917 17.156 16.9281 17.243 16.6628 17.3141L16.6499 17.3168C16.4602 17.3553 16.2672 17.3746 16.0747 17.3746C15.8818 17.3746 15.6893 17.3553 15.4991 17.3168L15.4867 17.3141C15.2209 17.243 14.9573 17.156 14.6979 17.0428C12.5854 16.1215 11.4584 14.0436 11.4914 11.8748C12.1184 11.9142 12.629 12.0618 13.2386 12.3281C14.5517 12.9005 15.5298 13.9212 16.0747 15.1321C16.6192 13.9212 17.5978 12.9005 18.9104 12.3281C19.52 12.0618 20.0306 11.9142 20.6581 11.8748Z" fill="white"/>
</svg>
