<svg width="32" height="32" viewBox="0 0 32 32" fill="none" xmlns="http://www.w3.org/2000/svg">
<path d="M0 16C0 7.16344 7.16344 0 16 0C24.8366 0 32 7.16344 32 16C32 24.8366 24.8366 32 16 32C7.16344 32 0 24.8366 0 16Z" fill="#AA4B22"/>
<path d="M16.2189 9.58333C15.9084 9.58333 15.5975 9.74787 15.4158 10.077L14.1688 12.3333H13.104L14.5921 9.64108C14.9288 9.03103 15.5371 8.66666 16.2189 8.66666C16.9002 8.66666 17.5085 9.03103 17.8456 9.64108L19.3333 12.3333H18.2685L17.0219 10.077C16.8398 9.74787 16.5293 9.58333 16.2189 9.58333Z" fill="white"/>
<path fill-rule="evenodd" clip-rule="evenodd" d="M21.838 13.25L22.5422 20.834C22.6673 22.1765 21.5874 23.3333 20.2103 23.3333H12.2268C10.8501 23.3333 9.77027 22.1765 9.8953 20.834L10.5996 13.25H21.838ZM18.5601 14.625C18.5601 14.878 18.7694 15.0833 19.0284 15.0833C19.2873 15.0833 19.4966 14.878 19.4966 14.625C19.4966 14.372 19.2873 14.1666 19.0284 14.1666C18.7694 14.1666 18.5601 14.372 18.5601 14.625ZM12.9409 14.625C12.9409 14.878 13.1507 15.0833 13.4092 15.0833C13.6677 15.0833 13.8774 14.878 13.8774 14.625C13.8774 14.372 13.6677 14.1666 13.4092 14.1666C13.1507 14.1666 12.9409 14.372 12.9409 14.625Z" fill="white"/>
</svg>
