<svg width="32" height="32" viewBox="0 0 32 32" fill="none" xmlns="http://www.w3.org/2000/svg">
<path d="M0 16C0 7.16344 7.16344 0 16 0C24.8366 0 32 7.16344 32 16C32 24.8366 24.8366 32 16 32C7.16344 32 0 24.8366 0 16Z" fill="#5E3D32"/>
<path fill-rule="evenodd" clip-rule="evenodd" d="M21.5 18.2222V15.8382L22.4167 15.5049V17.3333C22.4167 17.752 22.2641 18.2222 21.5 18.2222ZM16 17.8316L20.5834 16.1716V18.2222C20.5834 19.1111 18.2917 20 16 20C13.7084 20 11.4167 19.1111 11.4167 18.2222V16.1716L16 17.8316ZM23.3334 14.2222L16 16.8889L8.66669 14.2222L16 12L23.3334 14.2222Z" fill="white"/>
</svg>
