<svg width="32" height="32" viewBox="0 0 32 32" fill="none" xmlns="http://www.w3.org/2000/svg">
<path d="M0 16C0 7.16344 7.16344 0 16 0C24.8366 0 32 7.16344 32 16C32 24.8366 24.8366 32 16 32C7.16344 32 0 24.8366 0 16Z" fill="#004C3D"/>
<path fill-rule="evenodd" clip-rule="evenodd" d="M19.4505 10.5591C20.3284 10.5591 21.0402 11.2934 21.0402 12.1995V20.9678H10.2567C9.37846 20.9678 8.66666 20.2335 8.66666 19.3275V8.66666H12.183L13.253 10.5591H19.4505ZM16.9221 19.0753C17.6816 19.0753 18.298 18.4395 18.298 17.656V13.3979C17.5385 13.3979 16.9221 14.0333 16.9221 14.8172V19.0753ZM14.1703 19.0753C14.9302 19.0753 15.5462 18.4395 15.5462 17.656V14.3441C14.7862 14.3441 14.1703 14.9795 14.1703 15.7635V19.0753ZM11.4185 19.0753C12.1784 19.0753 12.7944 18.4395 12.7944 17.656V15.7635C12.0344 15.7635 11.4185 16.3989 11.4185 17.1828V19.0753Z" fill="white"/>
<path d="M21.9671 21.914V12.9478C22.7385 13.0609 23.3333 13.7379 23.3333 14.565V23.3333H12.5499C11.745 23.3333 11.0869 22.7145 10.9814 21.914H21.9671Z" fill="white"/>
</svg>
