<svg width="32" height="32" viewBox="0 0 32 32" fill="none" xmlns="http://www.w3.org/2000/svg">
<path d="M0 16C0 7.16344 7.16344 0 16 0C24.8366 0 32 7.16344 32 16C32 24.8366 24.8366 32 16 32C7.16344 32 0 24.8366 0 16Z" fill="#359F42"/>
<path fill-rule="evenodd" clip-rule="evenodd" d="M16.6938 15.1852V20.7725C16.6938 22.1842 15.5527 23.3333 14.1509 23.3333C13.4237 23.3333 12.7292 23.0162 12.2447 22.464L12.2479 22.4608C12.1407 22.3379 12.0736 22.1791 12.0736 22.0021C12.0736 21.6166 12.3839 21.3047 12.7667 21.3047C12.9733 21.3047 13.1564 21.3973 13.2836 21.5412L13.285 21.5398C13.5055 21.7917 13.8213 21.9365 14.1504 21.9365C14.788 21.9365 15.3067 21.4146 15.3067 20.7725V15.1852H8.66669C9.12255 11.5111 12.2285 8.66666 16.0003 8.66666C19.7715 8.66666 22.8775 11.5111 23.3334 15.1852H16.6938Z" fill="white"/>
</svg>
