<svg width="24" height="24" viewBox="0 0 24 24" fill="none" xmlns="http://www.w3.org/2000/svg">
<path fill-rule="evenodd" clip-rule="evenodd" d="M19.1328 16.125H12.1251L13.3819 17.3818C13.9188 17.9187 13.9188 18.7891 13.3819 19.326L9.49337 15.4375L13.3819 11.5483C13.9188 12.0859 13.9188 12.9563 13.3819 13.4932L12.1251 14.75H19.1328V16.125ZM8.99906 12.451L5.11056 8.5625L8.99906 4.67331C9.536 5.21094 9.536 6.08131 8.99906 6.61825L7.74231 7.875H14.75V9.25H7.74231L8.99906 10.5067C9.536 11.0437 9.536 11.9141 8.99906 12.451ZM12 1C5.92525 1 1 5.92525 1 12C1 18.0754 5.92525 23 12 23C18.0754 23 23 18.0754 23 12C23 5.92525 18.0754 1 12 1Z" fill="#262626"/>
</svg>
