<svg width="24" height="24" viewBox="0 0 24 24" fill="none" xmlns="http://www.w3.org/2000/svg">
<path fill-rule="evenodd" clip-rule="evenodd" d="M15.4376 8.73505C15.4376 8.69518 15.4293 8.6608 15.4279 8.62161C15.3805 9.84674 14.8381 10.8168 13.7195 11.6562L13.3146 11.9642C12.8161 12.3499 12.6113 12.5878 12.4999 12.9219V13.1928C12.4999 14.1223 11.8261 14.8792 10.9977 14.8792H10.2799L10.2958 13.0979C10.3157 11.9615 10.5598 11.648 11.6845 10.7061L12.1754 10.35C12.9688 9.7773 13.1908 9.2603 13.2266 8.68418C13.1894 7.93549 12.7584 7.60893 11.7938 7.60893C11.4088 7.60893 10.9695 7.69555 10.5151 7.79249C10.1748 7.86743 9.85094 7.82343 9.55051 7.66393C9.09263 7.47761 8.75576 7.09674 8.62719 6.60243L8.56257 6.35424L10.4869 5.89636C10.9489 5.79805 11.4906 5.74305 11.9987 5.74305C14.1698 5.74305 15.3784 6.76811 15.4279 8.62161C15.4307 8.56318 15.4376 8.5068 15.4376 8.44699V8.73505ZM11.3558 18.875C10.6813 18.875 10.132 18.3222 10.132 17.6437C10.132 16.9644 10.6813 16.4123 11.3558 16.4123C12.0316 16.4123 12.5816 16.9644 12.5816 17.6437C12.5816 18.3222 12.0316 18.875 11.3558 18.875ZM12 1C5.92525 1 1 5.92525 1 12C1 18.0748 5.92525 23 12 23C18.0748 23 23 18.0748 23 12C23 5.92525 18.0748 1 12 1Z" fill="#262626"/>
</svg>
