<svg width="20" height="20" viewBox="0 0 20 20" fill="none" xmlns="http://www.w3.org/2000/svg">
<path fill-rule="evenodd" clip-rule="evenodd" d="M4.01308 18.3325C4.89708 18.3274 5.70259 17.8072 6.09437 16.9883L18.3219 16.9883V14.8376L6.10998 14.8376C5.73204 14.0506 4.97163 13.5363 4.12235 13.4935H4.01308C2.71994 13.4935 1.67164 14.5767 1.67164 15.913C1.67164 17.2493 2.71994 18.3325 4.01308 18.3325ZM15.9805 12.4181C17.1374 12.4263 18.1267 11.5602 18.3089 10.3796C18.4911 9.19899 17.8115 8.05787 16.7095 7.6939C15.6075 7.32993 14.4134 7.85223 13.8992 8.92317L1.67163 8.92317L1.67163 11.0739L13.8836 11.0739C14.2779 11.8979 15.0908 12.4191 15.9805 12.4181ZM10.7773 5.15951C10.3855 5.97838 9.57996 6.49862 8.69597 6.50369H8.5867C7.73707 6.46196 6.97616 5.94738 6.59908 5.15951H1.67163L1.67163 3.00881H6.59908C6.99464 2.1861 7.80696 1.66585 8.69597 1.66585C9.58498 1.66585 10.3973 2.1861 10.7929 3.00881H18.3219L18.3219 5.15951H10.7773Z" fill="#262626"/>
</svg>
