<svg width="24" height="24" viewBox="0 0 24 24" fill="none" xmlns="http://www.w3.org/2000/svg">
<path d="M8.45532 14.5653C7.44537 14.0167 6.46774 13.1903 5.47017 12.0002C6.80737 10.4031 8.10744 9.45091 9.50033 8.96552C8.92351 9.58085 8.56326 10.4024 8.56326 11.3127C8.56326 12.1872 8.89945 12.9758 9.43777 13.5829L11.3965 11.6241C11.347 11.5293 11.3119 11.4268 11.3119 11.3127C11.3119 10.9325 11.6206 10.6252 11.9994 10.6252C12.1142 10.6252 12.2174 10.6596 12.3115 10.7091L19.265 3.75555C17.3262 2.04571 14.7879 1 12.0001 1C5.9253 1 1 5.92465 1 12.0002C1 14.7881 2.0457 17.3264 3.75553 19.2651L8.45532 14.5653Z" fill="#262626"/>
<path d="M11.9996 14.7499C13.8978 14.7499 15.4364 13.2106 15.4364 11.3123C15.4364 10.7919 15.3079 10.3072 15.0982 9.86649L10.5476 14.4178C10.9903 14.6248 11.4785 14.7499 11.9996 14.7499Z" fill="#262626"/>
<path d="M15.5223 9.44225L20.2372 4.72729C21.9512 6.66676 22.9996 9.20849 22.9996 11.9998C22.9996 18.0753 18.0743 23 11.9995 23C9.20824 23 6.66653 21.9515 4.72708 20.2383L9.83319 15.1314C10.5241 15.3329 11.2371 15.4374 11.9933 15.4374C14.4147 15.4374 16.3975 14.4604 18.5322 11.9998C17.5161 10.8283 16.5336 9.99501 15.5223 9.44225Z" fill="#262626"/>
</svg>
