<svg width="40" height="40" viewBox="0 0 40 40" fill="none" xmlns="http://www.w3.org/2000/svg">
<path d="M20.0004 39.9992C14.8025 39.9992 10.11 36.7492 8.24607 31.8871C3.30295 30.0593 0 25.3133 0 19.9996C0 14.6858 3.30295 9.93987 8.24607 8.11205C10.11 3.25002 14.8025 0 20.0004 0C25.1983 0 29.89 3.25002 31.7539 8.11205C36.697 9.93987 40 14.6858 40 19.9996C40 25.3133 36.697 30.0593 31.7539 31.8871C29.89 36.7492 25.1983 39.9992 20.0004 39.9992ZM20.0004 1.02998C15.1537 1.02998 10.7847 4.10861 9.12942 8.69115L9.04561 8.92162L8.8143 9.0025C4.15781 10.6221 1.02919 15.0416 1.02919 19.9996C1.02919 24.9576 4.15781 29.3771 8.8143 30.9967L9.04561 31.0776L9.12942 31.308C10.7847 35.8906 15.1537 38.9692 20.0004 38.9692C24.8463 38.9692 29.2153 35.8906 30.8706 31.308L30.9544 31.0776L31.1857 30.9967C35.8422 29.3771 38.9708 24.9576 38.9708 19.9996C38.9708 15.0416 35.8422 10.6221 31.1857 9.0025L30.9544 8.92162L30.8706 8.69115C29.2153 4.10861 24.8463 1.02998 20.0004 1.02998Z" fill="#191B1B"/>
<path d="M29.262 25.1751C32.0767 24.9188 34.158 22.4205 33.9018 19.606C33.7328 17.7503 32.5874 16.2171 31.0208 15.4591C30.9277 15.7909 30.8209 16.1167 30.6995 16.4356C31.8923 17.0619 32.7553 18.2599 32.8862 19.6984C33.0915 21.953 31.4241 23.9543 29.1696 24.1595C28.834 24.1901 28.5047 24.1769 28.1857 24.1285C28.0364 24.4534 27.8683 24.7682 27.6802 25.0701C28.1866 25.1839 28.7179 25.2246 29.262 25.1751Z" fill="#191B1B"/>
<path d="M36.9486 20.0792C36.9486 16.5085 34.7289 13.4146 31.4465 12.2332C31.4469 12.2731 31.4495 12.3124 31.4495 12.3524C31.4495 12.6745 31.4328 12.9927 31.4068 13.3081C34.1183 14.4229 35.9288 17.057 35.9288 20.0792C35.9288 23.4727 33.6106 26.3341 30.4749 27.1654C29.9421 27.3023 29.4061 27.3715 28.8727 27.3715C27.7052 27.3715 26.5631 27.026 25.5579 26.4401C25.154 26.2047 24.7705 25.9332 24.4146 25.63C25.865 24.3843 26.7864 22.5393 26.7864 20.4823C26.7864 16.7403 23.7416 13.6956 19.9995 13.6956C16.2574 13.6956 13.2134 16.7403 13.2134 20.4823C13.2134 24.2242 16.2574 27.2689 19.9995 27.2689C21.298 27.2689 22.5122 26.9017 23.5447 26.2665C23.6351 26.3398 23.7124 26.4028 23.7494 26.434C23.991 26.6377 24.242 26.8304 24.5022 27.0097C24.9972 27.3507 25.5259 27.6437 26.0819 27.8726C26.4867 28.0393 26.9057 28.1718 27.3335 28.265C27.4365 28.2875 28.5979 28.4603 28.5979 28.4298C28.6383 28.4298 28.6781 28.4273 28.7183 28.4267C28.7567 28.4273 28.7949 28.4298 28.8332 28.4298C29.8357 28.4298 30.85 28.2187 31.8479 27.8025C32.1293 27.6852 32.3996 27.5452 32.6637 27.3941C32.6582 27.389 32.6522 27.3843 32.6467 27.3792C35.2099 25.9519 36.9486 23.2154 36.9486 20.0792ZM14.2426 20.4823C14.2426 17.3081 16.8256 14.7256 19.9995 14.7256C23.1742 14.7256 25.7572 17.3081 25.7572 20.4823C25.7572 22.2592 24.9473 23.8504 23.6777 24.9072C23.6718 24.9006 23.6656 24.8944 23.6599 24.8877C23.2071 24.3686 22.7542 23.8496 22.3014 23.3305C22.0596 23.0532 21.8178 22.776 21.5759 22.4988L20.1611 22.5718C20.4323 22.8813 20.7035 23.1908 20.9747 23.5004C21.4641 24.0589 21.9534 24.6174 22.4428 25.1759C22.5475 25.2954 22.6522 25.4149 22.7568 25.5344C21.9374 25.9832 20.9978 26.2389 19.9995 26.2389C16.8256 26.2389 14.2426 23.6564 14.2426 20.4823Z" fill="#191B1B"/>
<path d="M11.7076 14.8402C8.88134 14.8402 6.58203 17.1396 6.58203 19.9657C6.58203 21.9451 7.71193 23.6626 9.3588 24.5161C9.46466 24.1889 9.5844 23.868 9.71907 23.5549C8.45792 22.8534 7.6018 21.5082 7.6018 19.9657C7.6018 17.7018 9.44371 15.8599 11.7076 15.8599C11.9303 15.8599 12.1464 15.8846 12.3591 15.9196C12.5493 15.6019 12.7597 15.2979 12.9867 15.0074C12.5775 14.9008 12.1499 14.8402 11.7076 14.8402Z" fill="#191B1B"/>
<path d="M4.25097 20.0737C4.25097 15.7262 7.78799 12.1893 12.1356 12.1893C13.2857 12.1893 14.3761 12.4418 15.3617 12.8868C15.7179 12.6688 16.0909 12.4758 16.4779 12.3088C15.1922 11.5863 13.7128 11.1696 12.1356 11.1696C7.22575 11.1696 3.2312 15.164 3.2312 20.0737C3.2312 23.8158 5.55288 27.0238 8.83055 28.3391C8.82568 28.2042 8.82027 28.0693 8.82027 27.9332C8.82027 27.6986 8.83 27.4665 8.84435 27.2355C6.1361 25.986 4.25097 23.2467 4.25097 20.0737Z" fill="#191B1B"/>
<path d="M25.188 11.5736C25.0806 8.74951 22.6955 6.5393 19.8713 6.64663C17.8932 6.72182 16.2198 7.91609 15.4294 9.59414C15.7604 9.68748 16.0856 9.79494 16.4036 9.91762C17.0568 8.63079 18.3685 7.72422 19.91 7.66562C22.1724 7.57963 24.0829 9.35018 24.1689 11.6123C24.1816 11.9438 24.1513 12.2666 24.0882 12.578C24.4054 12.7423 24.7121 12.9236 25.0055 13.1235C25.1414 12.6309 25.2084 12.1109 25.188 11.5736Z" fill="#191B1B"/>
<path d="M19.675 4.32133C24.0195 4.1562 27.6883 7.55617 27.8535 11.9005C27.8992 13.1016 27.6678 14.2484 27.2234 15.286C27.459 15.6129 27.6735 15.9558 27.8637 16.3139C28.5602 14.9852 28.9335 13.4656 28.8725 11.8618C28.686 6.95563 24.5426 3.11585 19.6363 3.30235C15.8968 3.44449 12.7791 5.88626 11.5891 9.21138C11.7238 9.20139 11.8584 9.19086 11.9944 9.18569C12.2288 9.17678 12.4612 9.17769 12.6925 9.18325C13.8383 6.42961 16.5042 4.44186 19.675 4.32133Z" fill="#191B1B"/>
<path d="M15.0069 28.9828C15.3994 31.7816 17.9958 33.7392 20.7947 33.3467C22.7078 33.0785 24.2219 31.778 24.867 30.0895C24.6195 30.0011 23.9879 29.7621 23.9137 29.7418C23.3941 31.0881 22.1807 32.1227 20.6531 32.3369C18.411 32.6513 16.3311 31.0831 16.0168 28.8412C15.9971 28.7009 15.9894 28.5618 15.9846 28.4233C15.636 28.2467 15.3 28.0491 14.9797 27.8298C14.9461 28.2066 14.9521 28.5923 15.0069 28.9828Z" fill="#191B1B"/>
<path d="M27.4834 30.665C26.4841 33.2465 24.1559 35.2294 21.2253 35.6403C16.9197 36.2441 12.9258 33.2326 12.3221 28.9273C12.153 27.7221 12.2714 26.5432 12.6185 25.4547C12.5258 25.3175 12.4381 25.1767 12.353 25.0342C12.2004 24.8278 12.0536 24.6166 11.9198 24.3956C11.3186 25.8237 11.0818 27.4258 11.3122 29.0689C11.994 33.931 16.5046 37.332 21.3669 36.6502C24.7969 36.1692 27.4942 33.7809 28.5493 30.71C28.5225 30.7102 28.496 30.712 28.4692 30.712C28.1366 30.712 27.8082 30.6947 27.4834 30.665Z" fill="#191B1B"/>
</svg>
