<svg width="24" height="24" viewBox="0 0 24 24" fill="none" xmlns="http://www.w3.org/2000/svg">
<path fill-rule="evenodd" clip-rule="evenodd" d="M3.75012 5V16.2001H18.875L23 10.6001L18.875 5H3.75012ZM14.8875 7.94003C14.8181 8.08003 14.7501 8.15003 14.5438 8.01003C14.1306 7.80003 13.5813 7.59003 13.0313 7.59003C12.6188 7.59003 12.3438 7.66003 12.0688 7.94003C11.8626 8.15003 11.7251 8.50004 11.6563 8.99004H13.7869C14.1306 8.99004 14.1306 9.06004 14.1306 9.41004V9.62005C14.1306 9.97005 14.1306 10.0401 13.7869 10.0401H11.5876V10.8101H13.7869C14.1306 10.8101 14.1306 10.8801 14.1306 11.2301V11.5801C14.1306 11.9301 14.1306 12.0001 13.7869 12.0001H11.7251C11.7938 12.3501 11.8626 12.5608 12.0688 12.7701C12.2751 13.0501 12.6876 13.1901 13.3063 13.1901C13.7869 13.1901 14.3376 13.0501 14.7501 12.9108C14.9378 12.8464 14.9546 12.8993 15.008 13.0672C15.0133 13.0837 15.0189 13.1014 15.025 13.1201L15.1619 13.6801C15.2313 13.8901 15.2313 14.0301 15.025 14.1001C14.5438 14.3108 13.7869 14.4501 13.2376 14.4501C12.1376 14.4501 11.4501 14.2401 10.9001 13.7501C10.4876 13.3301 10.2813 12.7701 10.1438 12.0001H9.38758C9.04384 12.0001 9.04384 11.9301 9.04384 11.5801V11.3701C9.04384 11.0201 9.04384 10.9501 9.38758 10.9501H10.0751V10.2501H9.38758C9.04384 10.2501 9.04384 10.1801 9.04384 9.83005V9.62005C9.04384 9.27004 9.04384 9.20004 9.38758 9.20004H10.1438C10.2813 8.22003 10.5563 7.59003 11.1063 7.10002C11.5876 6.68002 12.2063 6.54002 13.0313 6.54002C13.7869 6.54002 14.5438 6.75002 15.0938 7.10002C15.3 6.96002 15.3 7.10002 15.2313 7.24002L14.8875 7.94003Z" fill="#262626"/>
<path d="M2.37499 7.79989V17.6H18.0155L16.9843 19H1V7.79989H2.37499Z" fill="#262626"/>
</svg>
