<svg width="32" height="32" viewBox="0 0 32 32" fill="none" xmlns="http://www.w3.org/2000/svg">
<path d="M0 16C0 7.16344 7.16344 0 16 0C24.8366 0 32 7.16344 32 16C32 24.8366 24.8366 32 16 32C7.16344 32 0 24.8366 0 16Z" fill="#0D5870"/>
<path fill-rule="evenodd" clip-rule="evenodd" d="M21.841 14.958L20.5041 12.457C20.0439 11.5513 19.3569 11.1595 17.9791 11.0127C17.7023 10.983 16.5839 10.9789 15.9423 10.9789C14.8776 10.9789 14.2309 10.9903 14.02 11.0127C12.6459 11.1599 11.9603 11.5517 11.5001 12.4561L10.1549 14.9612L10.1165 14.9921C9.65922 15.361 9.12502 15.7919 9.12502 16.4915V21.5208H10.9584V20.1492H21.0417V21.5208H22.875V16.4915C22.875 15.7922 22.3409 15.3612 21.8834 14.9922L21.841 14.958ZM19.6667 16.9487C19.6667 16.6963 19.8716 16.4915 20.125 16.4915H21.5V16.9487C21.5 17.2015 21.2951 17.4059 21.0417 17.4059H19.6667V16.9487ZM17.9388 18.7775H14.0608C13.866 18.7775 13.7084 18.5732 13.7084 18.3203H18.2917C18.2917 18.5732 18.1336 18.7775 17.9388 18.7775ZM12.3334 17.4059H10.9584C10.7054 17.4059 10.5 17.2015 10.5 16.9487V16.4915H11.875C12.128 16.4915 12.3334 16.6963 12.3334 16.9487V17.4059ZM12.7202 13.0884C12.882 12.7652 13.0241 12.4991 14.1667 12.3765C14.334 12.3587 15.131 12.3505 15.9423 12.3505C16.8007 12.3505 17.6743 12.3596 17.8334 12.3765C18.976 12.4982 19.1217 12.7652 19.2835 13.0884L20.125 14.6626H11.875L12.7202 13.0884Z" fill="white"/>
<path d="M22.4167 13.7482C22.1632 13.7482 21.9584 13.953 21.9584 14.2054V14.6626H22.875C23.1285 14.6626 23.3334 14.4578 23.3334 14.2054V13.7482H22.4167Z" fill="white"/>
<path d="M10.0417 14.2054V14.6626H9.12502C8.87202 14.6626 8.66669 14.4578 8.66669 14.2054V13.7482H9.58335C9.83635 13.7482 10.0417 13.953 10.0417 14.2054Z" fill="white"/>
</svg>
