<svg width="32" height="32" viewBox="0 0 32 32" fill="none" xmlns="http://www.w3.org/2000/svg">
<path d="M0 16C0 7.16344 7.16344 0 16 0C24.8366 0 32 7.16344 32 16C32 24.8366 24.8366 32 16 32C7.16344 32 0 24.8366 0 16Z" fill="#E30000"/>
<path d="M16 12.5009C16.3538 10.6954 17.9053 9.33334 19.6667 9.33334C21.6925 9.33334 23.3333 11.1234 23.3333 13.3335C23.3333 14.3735 22.7434 15.3835 22.7434 15.3835C22.5812 15.6575 22.2113 16.1496 21.9239 16.5001H17.4048L16.4895 13.8605L15.4087 16.9376L14.086 12.4199L13.0048 16.2671L12.2371 14.59L11.3122 16.5001H10.054C9.7827 16.1906 9.42657 15.684 9.22811 15.3425C9.22811 15.3425 8.66666 14.3585 8.66666 13.3335C8.66666 11.1234 10.3075 9.33334 12.331 9.33334C14.0952 9.33334 15.6494 10.6894 16 12.5009Z" fill="white"/>
<path d="M16.4843 16.6711L16.7721 17.5001H21.025L16.4985 22.4428C16.2198 22.7413 15.7706 22.7413 15.4979 22.4428L10.9664 17.5001H11.8647L12.214 16.7786L13.209 18.9517L14.1041 15.7676L15.3306 19.9552L16.4843 16.6711Z" fill="white"/>
</svg>
