<svg width="32" height="32" viewBox="0 0 32 32" fill="none" xmlns="http://www.w3.org/2000/svg">
<path d="M0 16C0 7.16344 7.16344 0 16 0C24.8366 0 32 7.16344 32 16C32 24.8366 24.8366 32 16 32C7.16344 32 0 24.8366 0 16Z" fill="#01315C"/>
<path d="M16.6483 15.3521C17.0063 15.7101 17.0063 16.2903 16.6483 16.6483C16.2904 17.0063 15.7101 17.0063 15.3521 16.6483C14.9942 16.2903 14.9942 15.7101 15.3521 15.3521C15.7101 14.9942 16.2904 14.9942 16.6483 15.3521Z" fill="white"/>
<path fill-rule="evenodd" clip-rule="evenodd" d="M8.66667 16C8.66667 11.9502 11.9502 8.66666 16 8.66666C20.0503 8.66666 23.3333 11.9502 23.3333 16C23.3333 20.0503 20.0503 23.3333 16 23.3333C11.9502 23.3333 8.66667 20.0503 8.66667 16ZM11.721 20.279L17.6505 17.6504L20.279 11.721L14.3495 14.3495L11.721 20.279Z" fill="white"/>
</svg>
