<svg width="32" height="32" viewBox="0 0 32 32" fill="none" xmlns="http://www.w3.org/2000/svg">
<path d="M0 16C0 7.16344 7.16344 0 16 0C24.8366 0 32 7.16344 32 16C32 24.8366 24.8366 32 16 32C7.16344 32 0 24.8366 0 16Z" fill="#535453"/>
<path fill-rule="evenodd" clip-rule="evenodd" d="M10 12.303L13.2588 8.66666C13.7081 9.16945 13.7081 9.98303 13.2588 10.4848L12.2056 11.6606L23.3333 11.6606L23.3329 12.9459L12.2056 12.9459L13.2588 14.1212C13.7081 14.623 13.7081 15.4376 13.2588 15.9394L10 12.303Z" fill="white"/>
<path fill-rule="evenodd" clip-rule="evenodd" d="M8.66669 19.6364L11.9255 16C12.3748 16.5028 12.3748 17.3164 11.9255 17.8182L10.8723 18.9939L22.0005 18.9939L22 20.2793L10.8723 20.2793L11.9255 21.4546C12.3748 21.9564 12.3748 22.7709 11.9255 23.2727L8.66669 19.6364Z" fill="white"/>
</svg>
