<svg width="32" height="32" viewBox="0 0 32 32" fill="none" xmlns="http://www.w3.org/2000/svg">
<path d="M0 16C0 7.16344 7.16344 0 16 0C24.8366 0 32 7.16344 32 16C32 24.8366 24.8366 32 16 32C7.16344 32 0 24.8366 0 16Z" fill="#004F95"/>
<path fill-rule="evenodd" clip-rule="evenodd" d="M19.9231 15.5417C19.5769 15.5417 19.2594 15.6535 18.9963 15.8377L18.7577 16C17.9874 16.5729 17.0343 16.9167 16 16.9167C14.9657 16.9167 14.0131 16.5729 13.2423 16L12.9995 15.8345C12.7374 15.6517 12.4212 15.5417 12.0769 15.5417C11.1848 15.5417 10.4615 16.2599 10.4615 17.1458C10.4615 17.8127 10.8751 18.3746 11.4589 18.6148C11.7206 18.7083 11.9597 18.7399 12.1882 18.7743C12.2205 18.7784 12.2514 18.7848 12.2837 18.7903C12.3197 18.7963 12.3562 18.8022 12.3922 18.8096C12.4318 18.8169 12.4711 18.8252 12.5098 18.8348C12.5385 18.8412 12.5662 18.8504 12.5943 18.8582C13.7583 19.1831 14.6154 20.2419 14.6154 21.5V23.3333H17.3846V21.5C17.3846 20.2886 18.178 19.2597 19.2755 18.8944C19.3475 18.8687 19.4205 18.8504 19.4934 18.8339C19.5289 18.8247 19.5654 18.8178 19.6009 18.8105L19.6318 18.805C19.6983 18.7926 19.7648 18.7802 19.8326 18.7729C20.1031 18.7321 20.3892 18.6899 20.7109 18.5387C21.2038 18.266 21.5385 17.7472 21.5385 17.1458C21.5385 16.2599 20.8152 15.5417 19.9231 15.5417ZM12.3598 11.743C12.3285 11.9355 12.3077 12.1321 12.3077 12.3333C12.3077 14.3582 13.9609 16 16 16C18.0391 16 19.6923 14.3582 19.6923 12.3333C19.6923 12.1321 19.6715 11.9355 19.6402 11.743C20.2134 11.4964 20.6154 10.9308 20.6154 10.2708C20.6154 9.38486 19.8922 8.66666 19 8.66666C18.544 8.66666 18.1342 8.85595 17.8402 9.15753C17.2983 8.84724 16.6706 8.66666 16 8.66666C15.3289 8.66666 14.7017 8.84724 14.1598 9.15753C13.8658 8.85595 13.456 8.66666 13 8.66666C12.1078 8.66666 11.3846 9.38486 11.3846 10.2708C11.3846 10.9308 11.7866 11.4964 12.3598 11.743ZM20.1538 19.6667C19.1343 19.6667 18.3077 20.4875 18.3077 21.5V23.3333H20.1538C21.1734 23.3333 22 22.5124 22 21.5C22 20.4875 21.1734 19.6667 20.1538 19.6667ZM13.6923 21.5V23.3333H11.8462C10.8266 23.3333 10 22.5124 10 21.5C10 20.4875 10.8266 19.6667 11.8462 19.6667C12.8657 19.6667 13.6923 20.4875 13.6923 21.5Z" fill="white"/>
</svg>
