<svg width="32" height="32" viewBox="0 0 32 32" fill="none" xmlns="http://www.w3.org/2000/svg">
<path d="M0 16C0 7.16344 7.16344 0 16 0C24.8366 0 32 7.16344 32 16C32 24.8366 24.8366 32 16 32C7.16344 32 0 24.8366 0 16Z" fill="#AA4B22"/>
<path d="M20.6965 17.7297H17.2629C16.9474 17.7294 16.6447 17.8546 16.4211 18.078C16.1975 18.3014 16.0713 18.6045 16.0702 18.9211V19.9406C16.0712 20.2572 16.1975 20.5604 16.4211 20.7837C16.6447 21.0071 16.9474 21.1323 17.2629 21.132H20.6965V21.7076C20.6964 22.7579 19.9673 23.6097 19.0715 23.6099H10.2766V17.149C10.2767 16.1037 11.0063 15.2466 11.9022 15.2466H20.6965V17.7297ZM21.0461 18.2518C21.359 18.2518 21.6099 18.55 21.6099 18.9211V19.9406C21.6099 20.3117 21.3589 20.6099 21.0461 20.6099H17.1594C16.8467 20.6097 16.5911 20.3116 16.591 19.9406V18.9211C16.5911 18.5501 16.8468 18.252 17.1594 18.2518H21.0461ZM15.9569 8.27658C18.1108 8.27663 19.8567 10.1023 19.8567 12.3541C19.8567 13.1623 19.6315 13.9156 19.2434 14.5494H12.6698C12.2817 13.9156 12.0565 13.1623 12.0565 12.3541C12.0565 10.1022 13.803 8.27658 15.9569 8.27658ZM16.1301 10.4966C15.7833 10.4966 15.4941 10.557 15.2629 10.7382C15.0032 10.9498 14.8876 11.2517 14.83 11.7043H14.5123C14.3677 11.7043 14.3677 11.7648 14.3677 11.9159V12.0064C14.3677 12.1573 14.3677 12.218 14.5123 12.218H14.83V12.55H14.5123C14.3677 12.55 14.3677 12.6107 14.3677 12.7616V12.8521C14.3677 13.003 14.3677 13.0637 14.5123 13.0637H14.8593C14.9169 13.4564 15.0034 13.6977 15.2056 13.9094C15.4079 14.1508 15.7256 14.2414 16.2453 14.2414C16.5055 14.2414 16.8234 14.151 17.0546 14.0604C17.1411 14.0304 17.1408 13.9699 17.1119 13.8794L17.0546 13.6073C17.0521 13.5993 17.0496 13.5916 17.0474 13.5845C17.0249 13.5116 17.0176 13.4892 16.9387 13.5168C16.7654 13.5774 16.5342 13.6373 16.3033 13.6373C16.0147 13.6372 15.8411 13.547 15.7545 13.4263C15.6968 13.3358 15.6386 13.2147 15.6099 13.0637H16.5344C16.6789 13.0637 16.6789 13.0029 16.6789 12.8521V12.7616C16.6789 12.6108 16.6789 12.55 16.5344 12.55H15.552V12.218H16.5344C16.6789 12.218 16.6789 12.1572 16.6789 12.0064V11.9159C16.6789 11.7649 16.6789 11.7043 16.5344 11.7043H15.5813C15.6103 11.4628 15.6679 11.3118 15.7545 11.2212C15.8411 11.1308 15.9856 11.0702 16.1588 11.0702C16.4475 11.0702 16.6783 11.1906 16.8515 11.2811C16.9094 11.3114 16.9679 11.3118 16.9967 11.2212L17.1412 10.8892C17.186 10.811 17.1227 10.7609 17.0546 10.7382C16.8234 10.5873 16.4766 10.4966 16.1301 10.4966Z" fill="white"/>
</svg>
