<svg width="32" height="32" viewBox="0 0 32 32" fill="none" xmlns="http://www.w3.org/2000/svg">
<path d="M0 16C0 7.16344 7.16344 0 16 0C24.8366 0 32 7.16344 32 16C32 24.8366 24.8366 32 16 32C7.16344 32 0 24.8366 0 16Z" fill="#0D5870"/>
<path fill-rule="evenodd" clip-rule="evenodd" d="M16.6709 9.33334C16.472 9.33334 16.2731 9.33334 16.0743 9.38291L13.0913 14.7361H10.1084L10.0587 15.083C10.009 15.3804 10.009 15.6778 10.009 15.9752C10.009 19.6927 12.9919 22.6667 16.6709 22.6667C20.3498 22.6667 23.3327 19.6927 23.3327 16.0248C23.3824 12.3073 20.3995 9.33334 16.6709 9.33334ZM18.7092 13.596L18.4606 14.1413C18.4109 14.29 18.3115 14.29 18.212 14.2404C17.9137 14.0917 17.516 13.8934 17.0189 13.8934C16.7206 13.8934 16.472 13.9926 16.3228 14.1413C16.1737 14.29 16.0743 14.5378 16.0245 14.9343H17.6652C17.9137 14.9343 17.9137 15.0335 17.9137 15.2813V15.43C17.9137 15.6778 17.9137 15.777 17.6652 15.777H15.9748V16.3222H17.6652C17.9137 16.3222 17.9137 16.4213 17.9137 16.6692V16.8179C17.9137 17.0657 17.9137 17.1648 17.6652 17.1648H16.0743C16.124 17.4127 16.2234 17.6109 16.3228 17.7596C16.472 17.9579 16.7703 18.1066 17.2674 18.1066C17.6652 18.1066 18.0629 18.0074 18.3612 17.9083C18.4971 17.8631 18.5092 17.9003 18.5479 18.0198C18.5516 18.0315 18.5556 18.0438 18.56 18.057L18.6595 18.5031C18.7092 18.6518 18.7092 18.7509 18.56 18.8005C18.1623 18.9492 17.6154 19.0979 17.168 19.0979C16.2731 19.0979 15.7263 18.9492 15.3782 18.5527C15.0302 18.2057 14.8811 17.8092 14.7817 17.1648H14.1851C13.9365 17.1648 13.9365 17.0657 13.9365 16.8179V16.6692C13.9365 16.4213 13.9365 16.3222 14.1851 16.3222H14.7319V15.777H14.1851C13.9365 15.777 13.9365 15.6778 13.9365 15.43V15.2813C13.9365 15.0335 13.9365 14.9343 14.1851 14.9343H14.7319C14.8314 14.1908 15.0302 13.6952 15.4777 13.3482C15.8754 13.0508 16.3726 12.9517 16.9691 12.9517C17.5657 12.9517 18.1623 13.1004 18.56 13.3482C18.7589 13.3978 18.8086 13.4473 18.7092 13.596Z" fill="white"/>
<path d="M14.1354 10.7708H11.5999C11.3513 10.7212 11.1524 10.6716 11.0033 10.4734C10.8044 10.2751 10.6553 10.0273 10.6553 9.77944H14.6822L14.1354 10.7708Z" fill="white"/>
<path d="M9.61126 13.7447H12.4948L13.0416 12.7534H8.66666C8.66666 13.0012 8.81581 13.2491 9.01467 13.4473C9.16382 13.6456 9.36268 13.6952 9.61126 13.7447Z" fill="white"/>
<path d="M13.3399 12.2578H10.6056C10.357 12.2082 10.1581 12.1586 10.009 11.9604C9.81012 11.7621 9.66097 11.5143 9.66097 11.2664H13.8868L13.3399 12.2578Z" fill="white"/>
</svg>
