<svg width="32" height="32" viewBox="0 0 32 32" fill="none" xmlns="http://www.w3.org/2000/svg">
<path d="M0 16C0 7.16344 7.16344 0 16 0C24.8366 0 32 7.16344 32 16C32 24.8366 24.8366 32 16 32C7.16344 32 0 24.8366 0 16Z" fill="#899E00"/>
<path fill-rule="evenodd" clip-rule="evenodd" d="M16.0525 9.33334L10 13.9167V19.7721C10 21.3708 11.3379 22.6667 12.9886 22.6667H14.7094V18.9167C14.7094 18.4567 15.0944 18.0833 15.5698 18.0833H16.4302C16.9051 18.0833 17.2906 18.4567 17.2906 18.9167V22.6667H19.0114C20.6621 22.6667 22 21.3708 22 19.7721V13.9167L16.0525 9.33334Z" fill="white"/>
</svg>
