<svg width="32" height="32" viewBox="0 0 32 32" fill="none" xmlns="http://www.w3.org/2000/svg">
<path d="M0 16C0 7.16344 7.16344 0 16 0C24.8366 0 32 7.16344 32 16C32 24.8366 24.8366 32 16 32C7.16344 32 0 24.8366 0 16Z" fill="#0D5870"/>
<path fill-rule="evenodd" clip-rule="evenodd" d="M23.3623 12.303L20.1035 15.9394C19.6542 15.4366 19.6542 14.623 20.1035 14.1212L21.1567 12.9454L10.029 12.9454L10.0295 11.6601L21.1567 11.6601L20.1035 10.4848C19.6542 9.98302 19.6542 9.16847 20.1035 8.66666L23.3623 12.303Z" fill="white"/>
<path fill-rule="evenodd" clip-rule="evenodd" d="M8.6377 19.6364L11.8965 16C12.3458 16.5028 12.3458 17.3164 11.8965 17.8182L10.8433 18.9939L21.9715 18.9939L21.971 20.2793L10.8433 20.2793L11.8965 21.4546C12.3458 21.9564 12.3458 22.7709 11.8965 23.2727L8.6377 19.6364Z" fill="white"/>
</svg>
