<svg width="32" height="32" viewBox="0 0 32 32" fill="none" xmlns="http://www.w3.org/2000/svg">
<path d="M0 16C0 7.16344 7.16344 0 16 0C24.8366 0 32 7.16344 32 16C32 24.8366 24.8366 32 16 32C7.16344 32 0 24.8366 0 16Z" fill="#388BCA"/>
<path fill-rule="evenodd" clip-rule="evenodd" d="M8.66666 11.4167C8.66666 9.8982 9.89821 8.66666 11.4167 8.66666H23.3333V17.8333C23.3333 18.7614 22.9855 19.6071 22.4167 20.2529V17.375C22.4167 16.1091 21.3909 15.0833 20.125 15.0833H17.375C16.1095 15.0833 15.0833 16.1091 15.0833 17.375V21.5H8.66666V11.4167ZM21.5 13.25H16V12.3333H21.5V13.25ZM13.7083 15.0833C13.7083 15.3363 13.9137 15.5417 14.1667 15.5417C14.4197 15.5417 14.625 15.3363 14.625 15.0833C14.625 14.8303 14.4197 14.625 14.1667 14.625C13.9137 14.625 13.7083 14.8303 13.7083 15.0833ZM13.7083 16.9167C13.7083 17.1697 13.9137 17.375 14.1667 17.375C14.4197 17.375 14.625 17.1697 14.625 16.9167C14.625 16.6637 14.4197 16.4583 14.1667 16.4583C13.9137 16.4583 13.7083 16.6637 13.7083 16.9167ZM13.7083 18.75C13.7083 19.003 13.9137 19.2083 14.1667 19.2083C14.4197 19.2083 14.625 19.003 14.625 18.75C14.625 18.497 14.4197 18.2917 14.1667 18.2917C13.9137 18.2917 13.7083 18.497 13.7083 18.75ZM11.875 15.0833C11.875 15.3363 12.0803 15.5417 12.3333 15.5417C12.5863 15.5417 12.7917 15.3363 12.7917 15.0833C12.7917 14.8303 12.5863 14.625 12.3333 14.625C12.0803 14.625 11.875 14.8303 11.875 15.0833ZM11.875 16.9167C11.875 17.1697 12.0803 17.375 12.3333 17.375C12.5863 17.375 12.7917 17.1697 12.7917 16.9167C12.7917 16.6637 12.5863 16.4583 12.3333 16.4583C12.0803 16.4583 11.875 16.6637 11.875 16.9167ZM11.875 18.75C11.875 19.003 12.0803 19.2083 12.3333 19.2083C12.5863 19.2083 12.7917 19.003 12.7917 18.75C12.7917 18.497 12.5863 18.2917 12.3333 18.2917C12.0803 18.2917 11.875 18.497 11.875 18.75ZM10.0417 15.0833C10.0417 15.3363 10.247 15.5417 10.5 15.5417C10.753 15.5417 10.9583 15.3363 10.9583 15.0833C10.9583 14.8303 10.753 14.625 10.5 14.625C10.247 14.625 10.0417 14.8303 10.0417 15.0833ZM10.0417 16.9167C10.0417 17.1697 10.247 17.375 10.5 17.375C10.753 17.375 10.9583 17.1697 10.9583 16.9167C10.9583 16.6637 10.753 16.4583 10.5 16.4583C10.247 16.4583 10.0417 16.6637 10.0417 16.9167ZM10.0417 18.75C10.0417 19.003 10.247 19.2083 10.5 19.2083C10.753 19.2083 10.9583 19.003 10.9583 18.75C10.9583 18.497 10.753 18.2917 10.5 18.2917C10.247 18.2917 10.0417 18.497 10.0417 18.75Z" fill="white"/>
<path fill-rule="evenodd" clip-rule="evenodd" d="M17.375 16H20.125C20.884 16 21.5 16.6155 21.5 17.375V21.9583C21.5 22.7178 20.884 23.3333 20.125 23.3333H17.375C16.6155 23.3333 16 22.7178 16 21.9583V17.375C16 16.6155 16.6155 16 17.375 16ZM18.75 22.4167H17.375V16.9167H18.75V22.4167Z" fill="white"/>
</svg>
