<svg width="32" height="32" viewBox="0 0 32 32" fill="none" xmlns="http://www.w3.org/2000/svg">
<path d="M0 16C0 7.16344 7.16344 0 16 0C24.8366 0 32 7.16344 32 16C32 24.8366 24.8366 32 16 32C7.16344 32 0 24.8366 0 16Z" fill="#004F95"/>
<path d="M8.66666 10.924L9.51182 11.3736C10.5407 11.9314 11.8271 11.5497 12.385 10.521L11.3749 12.3838L11.9836 12.7175L16 11.0546L20.0168 12.7175L20.6255 12.3838L19.6155 10.521C20.1733 11.5497 21.4593 11.9314 22.4882 11.3736L23.3333 10.924L22.6871 9.73144C22.1513 8.7442 20.9165 8.37753 19.9288 8.91286L16 11.0432L12.0716 8.91286C11.0839 8.37753 9.8487 8.7442 9.31336 9.73144L8.66666 10.924Z" fill="white"/>
<path d="M17.7361 16.5675C16.9235 16.2316 16.445 15.4373 16.4647 14.6082C16.4786 14.0221 16.4697 13.32 16.4632 12.8145C16.4605 12.6048 16.4583 12.4289 16.4583 12.3092L21.5971 14.4363C22.6517 14.8722 23.1536 16.0803 22.7182 17.1349L22.192 18.4086L20.9985 17.915C19.9002 17.4614 19.3773 16.2035 19.8307 15.1051L19.0094 17.0932L17.7361 16.5675Z" fill="white"/>
<path d="M10.4029 14.4365L15.5417 12.3094L15.5477 14.6084L15.5404 14.6199L15.5358 14.6107C15.5546 15.4389 15.0756 16.2323 14.2639 16.5678L12.9911 17.0935L12.1693 15.1043C12.6231 16.2029 12.1001 17.4615 11.0015 17.9152L9.808 18.4084L9.28229 17.1352C8.84641 16.0806 9.34829 14.8724 10.4029 14.4365Z" fill="white"/>
<path d="M16.0001 16.5487C15.7375 16.8008 15.4249 17.0065 15.0724 17.1518L14.7727 17.276L14.1667 23.3333H16.9167V17.276C16.4584 17.1014 16.2196 16.8594 16.0001 16.5487Z" fill="white"/>
</svg>
