<svg width="32" height="32" viewBox="0 0 32 32" fill="none" xmlns="http://www.w3.org/2000/svg">
<path d="M0 16C0 7.16344 7.16344 0 16 0C24.8366 0 32 7.16344 32 16C32 24.8366 24.8366 32 16 32C7.16344 32 0 24.8366 0 16Z" fill="#546100"/>
<path fill-rule="evenodd" clip-rule="evenodd" d="M12.4998 11.4167V8.66666C12.4998 8.66666 14.9997 8.66666 14.9997 10.5V11.4167H16C20.5 11.4167 22 12.7917 22 16.9167H17.9997C17.9997 15.5417 17.5 15.0833 16 15.0833H10V11.4167H12.4998ZM17.9997 21.4968C17.9997 20.125 19.9998 17.8333 19.9998 17.8333C19.9998 17.8333 22 20.125 22 21.4968C22 22.4167 20.9997 23.3333 19.9998 23.3333C18.8934 23.3333 17.9997 22.4167 17.9997 21.4968Z" fill="white"/>
</svg>
