<svg width="32" height="32" viewBox="0 0 32 32" fill="none" xmlns="http://www.w3.org/2000/svg">
<path d="M0 16C0 7.16344 7.16344 0 16 0C24.8366 0 32 7.16344 32 16C32 24.8366 24.8366 32 16 32C7.16344 32 0 24.8366 0 16Z" fill="#7757A4"/>
<path d="M21.8645 13.6982C22.139 14.2592 22.7091 14.6149 23.3333 14.6149L21.3169 10.4968H22.4158V9.58195H17.2905C17.1012 9.04982 16.598 8.66666 16 8.66666C15.4024 8.66666 14.8987 9.04982 14.7095 9.58195H9.58409V10.4968H10.683L8.66663 14.6149C9.2908 14.6149 9.86089 14.2592 10.1354 13.6982L11.4172 11.0812L12.699 13.6982C12.9735 14.2592 13.5436 14.6149 14.1678 14.6149L12.1514 10.4968H14.7095C14.7869 10.714 14.9152 10.9047 15.0834 11.0555V21.0206H14.9106C13.7929 21.1883 12.7632 21.6082 11.8755 22.2127V23.3333H20.1244V22.2127C19.2372 21.6082 18.207 21.1883 17.0893 21.0206H16.9165V11.0555C17.0847 10.9047 17.2135 10.714 17.2905 10.4968H19.8486L17.8321 14.6149C18.4563 14.6149 19.0269 14.2592 19.3009 13.6982L20.5827 11.0812L21.8645 13.6982Z" fill="white"/>
<path d="M8.66759 15.53C8.66759 17.0462 9.89898 18.275 11.4172 18.275C12.9355 18.275 14.1669 17.0462 14.1669 15.53H8.66759Z" fill="white"/>
<path d="M17.8331 15.53C17.8331 17.0462 19.0645 18.275 20.5828 18.275C22.101 18.275 23.3324 17.0462 23.3324 15.53H17.8331Z" fill="white"/>
</svg>
