<svg width="32" height="32" viewBox="0 0 32 32" fill="none" xmlns="http://www.w3.org/2000/svg">
<path d="M0 16C0 7.16344 7.16344 0 16 0C24.8366 0 32 7.16344 32 16C32 24.8366 24.8366 32 16 32C7.16344 32 0 24.8366 0 16Z" fill="#3D7D43"/>
<path d="M8.50195 14.1934C9.38548 14.1934 10.2275 14.3652 11.0088 14.666V17.6504C10.4332 17.7486 9.99316 18.2601 9.99316 18.8799C9.99334 19.5 10.4333 20.0112 11.0088 20.1094V22.9678H15.6748V24H8V14.1934H8.50195ZM23.0459 17.6592C23.591 17.7821 24 18.2818 24 18.8799C23.9999 19.4779 23.5908 19.9767 23.0459 20.0996V21.9355H12.0127V15.7412H23.0459V17.6592ZM15.6611 18.7393L17.8701 21.1396C18.0295 20.9744 18.1104 20.774 18.1104 20.54C18.1103 20.3058 18.0294 20.1059 17.8701 19.9404L17.1191 19.1396H19.8789V18.3389H17.1191L17.8701 17.5381C18.0295 17.3733 18.1104 17.1721 18.1104 16.9385C18.1103 16.7038 18.0294 16.5044 17.8701 16.3389L15.6611 18.7393ZM11.9043 8C13.2296 8 14.3047 9.07511 14.3047 10.4004C14.3045 11.7255 13.2294 12.7998 11.9043 12.7998C10.5793 12.7997 9.50509 11.7254 9.50488 10.4004C9.50488 9.07519 10.5791 8.00013 11.9043 8Z" fill="white"/>
</svg>
