<svg width="32" height="32" viewBox="0 0 32 32" fill="none" xmlns="http://www.w3.org/2000/svg">
<path d="M0 16C0 7.16344 7.16344 0 16 0C24.8366 0 32 7.16344 32 16C32 24.8366 24.8366 32 16 32C7.16344 32 0 24.8366 0 16Z" fill="#A33694"/>
<path d="M11.9076 10.9393L14.3235 19.1306C13.586 19.0953 12.7344 18.8447 12.4668 17.9345L10.4038 10.9403H10.3983C9.62276 10.9403 9.06312 10.7317 8.77116 9.73931L8.66437 9.3348L10.1737 9.33334C10.9492 9.33334 11.5088 9.54189 11.8008 10.5348L11.9076 10.9393Z" fill="white"/>
<path d="M14.3236 20.6461C14.8521 20.6461 15.2806 21.0985 15.2806 21.6564C15.2806 22.2143 14.8521 22.6667 14.3236 22.6667C13.7952 22.6667 13.3666 22.2143 13.3666 21.6564C13.3666 21.0985 13.7952 20.6461 14.3236 20.6461Z" fill="white"/>
<path d="M19.5332 20.6461C20.0617 20.6461 20.4902 21.0985 20.4902 21.6564C20.4902 22.2143 20.0617 22.6667 19.5332 22.6667C19.0047 22.6667 18.5762 22.2143 18.5762 21.6564C18.5762 21.0985 19.0047 20.6461 19.5332 20.6461Z" fill="white"/>
<path d="M15.4775 19.1303L13.3425 12.0591L13.3435 12.0582H22.0345C22.9819 12.0582 23.5796 12.8551 23.2303 13.8693L21.2196 19.1303H15.4775Z" fill="white"/>
</svg>
