<svg width="32" height="32" viewBox="0 0 32 32" fill="none" xmlns="http://www.w3.org/2000/svg">
<path d="M0 16C0 7.16344 7.16344 0 16 0C24.8366 0 32 7.16344 32 16C32 24.8366 24.8366 32 16 32C7.16344 32 0 24.8366 0 16Z" fill="#004C3D"/>
<path fill-rule="evenodd" clip-rule="evenodd" d="M11.4167 13.871H11C10.0796 13.871 9.33333 13.0236 9.33333 11.9785L16 8.66666L22.6667 11.9785C22.6667 13.0236 21.9204 13.871 21 13.871H20.5833V20.4946H18.9167V13.871H16.8333V20.4946H15.1667V13.871H13.0833V20.4946H11.4167V13.871ZM16.8333 11.5054C16.8333 10.983 16.46 10.5591 16 10.5591C15.54 10.5591 15.1667 10.983 15.1667 11.5054C15.1667 12.0277 15.54 12.4516 16 12.4516C16.46 12.4516 16.8333 12.0277 16.8333 11.5054Z" fill="white"/>
<path d="M22.25 21.4409V23.3333H9.75V21.4409H22.25Z" fill="white"/>
</svg>
