<svg width="24" height="24" viewBox="0 0 24 24" fill="none" xmlns="http://www.w3.org/2000/svg">
<path d="M14.9961 3.92969C14.9961 5.58654 13.6529 6.92969 11.9961 6.92969C10.3392 6.92969 8.99609 5.58654 8.99609 3.92969C8.99609 2.27283 10.3392 0.929688 11.9961 0.929688C13.6529 0.929688 14.9961 2.27283 14.9961 3.92969Z" fill="#262626"/>
<path d="M14.9961 11.9297C14.9961 13.5865 13.6529 14.9297 11.9961 14.9297C10.3392 14.9297 8.99609 13.5865 8.99609 11.9297C8.99609 10.2728 10.3392 8.92969 11.9961 8.92969C13.6529 8.92969 14.9961 10.2728 14.9961 11.9297Z" fill="#262626"/>
<path d="M14.9961 19.9297C14.9961 21.5865 13.6529 22.9297 11.9961 22.9297C10.3392 22.9297 8.99609 21.5865 8.99609 19.9297C8.99609 18.2728 10.3392 16.9297 11.9961 16.9297C13.6529 16.9297 14.9961 18.2728 14.9961 19.9297Z" fill="#262626"/>
</svg>
