<svg width="24" height="24" viewBox="0 0 24 24" fill="none" xmlns="http://www.w3.org/2000/svg">
<path d="M11.7587 9.32102C11.7587 8.16785 12.6753 7.23321 13.8061 7.23321C14.937 7.23321 15.8536 8.16785 15.8536 9.32102C15.8536 10.4742 14.937 11.4088 13.8061 11.4088C12.6753 11.4088 11.7587 10.4742 11.7587 9.32102Z" fill="#262626"/>
<path fill-rule="evenodd" clip-rule="evenodd" d="M5.61636 9.32099C5.61636 4.709 9.28337 0.969727 13.8062 0.969727C18.3291 0.969727 21.9961 4.709 21.9961 9.32099C21.9961 13.933 18.3291 17.6722 13.8062 17.6722C12.2358 17.6722 10.7746 17.2136 9.52838 16.4321L3.04542 22.9697C1.64632 21.5431 1.64632 19.2291 3.04542 17.8024L6.9281 13.8439C6.10161 12.5397 5.61636 10.9892 5.61636 9.32099ZM8.34607 9.32094C8.34607 12.3907 10.7955 14.8885 13.806 14.8885C16.8164 14.8885 19.2659 12.3907 19.2659 9.32094C19.2659 6.25116 16.8164 3.75344 13.806 3.75344C10.7955 3.75344 8.34607 6.25116 8.34607 9.32094Z" fill="#262626"/>
</svg>
