<svg width="24" height="24" viewBox="0 0 24 24" fill="none" xmlns="http://www.w3.org/2000/svg">
<path fill-rule="evenodd" clip-rule="evenodd" d="M10.6628 14.7471C12.3527 15.4297 14.274 14.6148 14.9585 12.9248C15.6411 11.2347 14.8244 9.31128 13.1344 8.62865C11.4445 7.94602 9.52319 8.76284 8.84061 10.4529C8.15804 12.1429 8.9748 14.0644 10.6628 14.7471ZM2.1137 17.6697L1.02121 15.0585L3.50848 12.8857V11.1779L1 9.01752L2.07481 6.39923L5.38232 6.62199L6.57734 5.4251L6.33162 2.11202L8.94263 1.02122L11.1258 3.52105H12.8123L14.9831 1L17.6012 2.0749L17.3785 5.38091L18.5735 6.57779L21.8881 6.33028L22.9806 8.9415L20.4915 11.1143V12.8239L23 14.9825L21.9252 17.6025L18.6442 17.3798L17.4244 18.5996L17.6701 21.888L15.0574 22.9806L12.8989 20.5055H11.1665L9.01687 23L6.40056 21.9269L6.62154 18.6438L5.40177 17.4257L2.1137 17.6697Z" fill="#262626"/>
</svg>
