<svg width="24" height="24" viewBox="0 0 24 24" fill="none" xmlns="http://www.w3.org/2000/svg">
<path fill-rule="evenodd" clip-rule="evenodd" d="M11.9901 15.4375C9.56939 15.4375 7.56464 14.5045 5.46639 12C6.80358 10.4036 8.10364 9.45074 9.49651 8.96536C8.9197 9.58068 8.55945 10.4022 8.55945 11.3125C8.55945 13.2107 10.0981 14.75 11.9956 14.75C13.8938 14.75 15.4324 13.2107 15.4324 11.3125C15.4324 10.4119 15.079 9.59993 14.5125 8.98668C15.8896 9.48443 17.1793 10.4442 18.5289 12C16.3942 14.4606 14.4108 15.4375 11.9901 15.4375ZM11.9955 10.625C12.3755 10.625 12.6826 10.9328 12.6826 11.3121C12.6826 11.6914 12.3755 11.9993 11.9955 11.9993C11.6169 11.9993 11.3084 11.6914 11.3084 11.3121C11.3084 10.9328 11.6169 10.625 11.9955 10.625ZM11.9966 1C5.92183 1 0.996582 5.92525 0.996582 12C0.996582 18.0754 5.92183 23 11.9966 23C18.0713 23 22.9966 18.0754 22.9966 12C22.9966 5.92525 18.0713 1 11.9966 1Z" fill="#262626"/>
</svg>
