<svg width="140" height="18" viewBox="0 0 140 18" fill="none" xmlns="http://www.w3.org/2000/svg">
<path d="M9.17166 4.80654C9.17166 4.80654 9.17166 4.75749 9.3188 4.56131C9.46594 4.36512 9.41689 4.21798 9.3188 4.11989C9.26976 4.07084 7.84741 3.23706 7.84741 3.23706C7.74932 3.18801 7.70027 3.04087 7.70027 2.94278C7.70027 2.74659 7.84741 2.59946 8.09264 2.50136C8.97548 2.25613 12.1635 2.10899 13.2425 2.10899C13.5858 2.10899 14.1744 2.10899 14.7139 2.10899C14.7629 2.10899 14.7629 2.10899 14.7629 2.10899C13.1935 0.784741 11.1826 0 8.97548 0C4.0218 0 0 4.0218 0 8.97548C0 11.1335 0.784741 13.1444 2.05995 14.7139C3.18801 13.0463 5.98365 9.12262 6.57221 8.28883C7.3079 7.20981 9.17166 4.80654 9.17166 4.80654Z" fill="#E1061C"/>
<path d="M17.2148 5.3952C17.6562 4.95378 17.9505 4.56141 17.9014 4.21809C17.8524 3.28621 16.7243 2.55051 16.7243 2.55051C16.7243 2.55051 16.7243 2.55051 16.6753 2.50146C16.7243 2.55051 16.7734 2.59956 16.8224 2.69765C17.1167 3.3843 16.6262 3.82572 16.332 4.11999C16.1848 4.26713 13.8796 6.42517 11.1821 8.77939C8.82787 10.8393 6.17937 12.9483 4.60989 14.1254C2.45185 15.744 2.01043 15.9892 2.01043 15.9892C1.96138 16.0382 1.86329 16.0382 1.7652 16.0382C1.61806 16.0382 1.51997 15.9402 1.42188 15.8421C1.42188 15.8911 1.42188 16.0382 1.61806 16.2835L1.71615 16.3816C1.86329 16.5287 2.05948 16.7739 2.35376 16.9701C2.79517 17.3625 2.99136 17.1663 3.92324 16.4797C5.34558 17.4115 7.0622 18.0001 8.92596 18.0001C13.8796 18.0001 17.9014 13.9783 17.9014 9.02463C17.9995 7.70037 17.7053 6.47422 17.2148 5.3952Z" fill="#E1061C"/>
<path fill-rule="evenodd" clip-rule="evenodd" d="M9.31953 4.56169C9.46667 4.36551 9.41762 4.21837 9.31953 4.12027C9.27048 4.07123 7.84814 3.23744 7.84814 3.23744C7.75004 3.18839 7.701 3.04126 7.701 2.94316C7.701 2.74698 7.84814 2.59984 8.09337 2.50175C8.9762 2.25651 12.1642 2.10938 13.2432 2.10938C13.7337 2.10938 14.7637 2.10938 15.4013 2.15842C16.137 2.20747 16.7255 2.35461 16.8236 2.69793C17.1179 3.38458 16.6274 3.826 16.3332 4.12027C16.186 4.26741 13.8808 6.42545 11.1833 8.77968C8.82906 10.8396 6.18056 12.9486 4.61108 14.1257C2.45304 15.7443 2.01163 15.9895 2.01163 15.9895C1.96258 16.0385 1.86449 16.0385 1.76639 16.0385C1.52116 16.0385 1.37402 15.8914 1.37402 15.6462C1.37402 15.5481 1.42307 15.499 1.42307 15.4009C1.42307 15.4009 5.6901 9.27014 6.42579 8.24017C7.21054 7.21019 9.0743 4.80692 9.0743 4.80692C9.0743 4.80692 9.17239 4.75788 9.31953 4.56169Z" fill="white"/>
<path d="M32.2227 1.37329V12.6049C32.2227 15.0572 30.0646 16.97 27.1709 16.97C24.3262 16.97 22.1191 15.1063 22.1191 12.6049V4.02179C22.1191 2.5504 23.2963 1.37329 24.7186 1.37329H24.9148V12.6049C24.9148 13.9291 26.0919 14.7629 27.269 14.7629C28.3971 14.7629 29.5742 14.0272 29.5742 12.6049V3.87465C29.5742 2.50136 30.7022 1.37329 32.0755 1.37329H32.2227V1.37329Z" fill="#262626"/>
<path d="M37.7657 5.34644C41.5913 5.34644 42.1799 7.50447 42.1799 8.77968V16.7742H42.0818C40.6595 16.7742 39.4824 15.5971 39.4824 14.1748V8.77968C39.4824 8.04398 39.1881 7.1121 37.6676 7.1121C36.981 7.1121 36.5396 7.2102 36.0982 7.35733C36.0982 7.55352 36.0982 16.7252 36.0982 16.7252H33.3516V6.13118C34.5287 5.64071 36.4415 5.34644 37.7657 5.34644Z" fill="#262626"/>
<path d="M46.103 14.2239C46.1029 15.646 44.9755 16.8232 43.5044 16.8235H43.4058V5.34595H46.103V14.2239ZM44.7788 1.37329C45.6125 1.37329 46.2503 2.01075 46.2505 2.74634C46.2505 3.48203 45.6126 4.07056 44.7788 4.07056C43.9452 4.07037 43.3081 3.48192 43.3081 2.74634C43.2592 1.96183 43.9453 1.37348 44.7788 1.37329Z" fill="#262626"/>
<path d="M53.9014 1.12817C55.1766 1.12817 56.4028 1.42245 57.3837 2.01101V4.70856C56.7461 3.92381 55.9123 3.33526 54.49 3.33526C51.6943 3.33526 49.9777 6.08185 49.9777 8.92654C49.9777 11.6241 51.7924 14.5178 54.49 14.5178C55.6671 14.5178 56.7461 14.1745 57.3837 13.2917V15.9402C56.599 16.5287 55.3238 16.872 53.8524 16.872C49.4382 16.872 47.084 12.8012 47.084 8.92654C47.133 5.14997 49.4873 1.12817 53.9014 1.12817Z" fill="#262626"/>
<path d="M62.2391 5.34644C62.6806 5.34644 63.2691 5.39548 63.7596 5.44453V7.65161C62.8277 6.96496 61.5525 7.2102 61.013 7.50447V14.2238C61.013 15.6462 59.8359 16.8233 58.4135 16.8233H58.3154V6.22927C59.3944 5.68976 60.4735 5.34644 62.2391 5.34644Z" fill="#262626"/>
<path d="M68.6646 5.29712C71.6564 5.29712 73.3237 7.25917 73.3237 10.7415V11.1829H73.2749L66.4575 12.1145C66.7027 13.9782 67.6346 14.9591 69.3511 14.9592C71.2639 14.9592 72.1964 14.3218 72.9321 13.8313V16.0872C72.2455 16.4795 70.9697 16.9211 69.106 16.9211C65.7709 16.9211 63.8091 14.6646 63.8091 11.0842C63.8092 7.60218 65.6729 5.29718 68.6646 5.29712ZM68.5659 7.11157C67.0457 7.1607 66.3101 8.23965 66.3101 10.2502L70.9204 9.61255C70.8222 7.35715 69.4493 7.11165 68.6646 7.11157H68.5659Z" fill="#262626"/>
<path d="M83.0845 16.6753C82.4469 16.8224 80.2886 16.9702 79.4058 16.9702H79.2095C75.8746 16.921 74.0601 15.0078 74.0601 11.5747C74.0601 8.0926 75.9729 5.83649 78.9155 5.83643C79.5041 5.83643 79.9948 5.88579 80.3872 5.98389V4.02197C80.3872 2.59963 81.5154 1.42236 82.9868 1.42236H83.0845V16.6753ZM79.5034 7.45459C77.2477 7.45484 76.8062 9.61268 76.8062 11.4272C76.8062 13.9286 77.6403 15.2036 79.3569 15.2036C79.6513 15.2036 80.2887 15.155 80.4849 15.106V7.55322H80.436C80.1418 7.45513 79.8467 7.45459 79.5034 7.45459Z" fill="#262626"/>
<path d="M87.0581 14.2239C87.0581 15.6461 85.9307 16.8233 84.4595 16.8235H84.3608V5.34692H87.0581V14.2239ZM85.7329 1.37329C86.5666 1.37329 87.2044 2.01075 87.2046 2.74634C87.2046 3.48203 86.5667 4.07056 85.7329 4.07056C84.8993 4.07037 84.2622 3.48192 84.2622 2.74634C84.2133 1.96183 84.8994 1.37348 85.7329 1.37329Z" fill="#262626"/>
<path d="M91.8639 1.37329V5.34604H93.6296V7.55313H91.8639V13.6349C91.8639 14.3706 92.1091 14.6158 92.8939 14.6158C93.0901 14.6158 93.3844 14.5668 93.6296 14.4687V16.7248C93.5315 16.7738 92.992 16.97 92.2563 16.97C90.2454 16.97 89.1664 15.9891 89.1664 14.2234V7.55313H87.9893V5.34604H89.1664V3.97275C89.1664 2.5504 90.2944 1.37329 91.7168 1.37329H91.8639V1.37329Z" fill="#262626"/>
<path d="M103.39 1.03003C107.215 1.03016 109.128 2.69781 109.128 4.95386C109.177 7.16085 107.558 8.14201 106.185 8.43628V8.48511C107.656 8.77937 109.667 10.0544 109.667 12.3103C109.667 15.4002 107.215 16.7244 103.585 16.7244C100.153 16.7244 98.8774 16.6755 98.8774 16.6755V1.91284C99.8584 1.42238 101.477 1.03003 103.39 1.03003ZM102.556 9.27026H101.673V15.0085H103.537C105.4 15.0085 106.774 14.2729 106.774 12.3113C106.774 10.1532 105.548 9.17217 102.556 9.27026ZM103.439 2.698C102.752 2.698 102.213 2.79598 101.673 2.94312V7.79858H102.556C105.401 7.94572 106.333 7.06274 106.333 5.19897C106.332 3.48262 105.352 2.698 103.439 2.698Z" fill="#262626"/>
<path d="M114.67 5.29712C116.975 5.29727 118.937 6.47432 118.937 9.3186V16.6272C118.201 16.7743 116.436 16.9211 115.357 16.9211H114.768C111.727 16.9211 110.158 15.6456 110.158 13.4875C110.158 10.545 113.003 9.85799 116.436 9.56372V8.82837C116.436 7.35721 115.553 6.96518 114.229 6.96509C113.15 6.96509 112.07 7.35679 110.844 7.99438V6.17993C111.58 5.83661 112.905 5.29712 114.67 5.29712ZM116.436 10.7903C114.033 11.0355 112.561 11.526 112.561 13.4387C112.561 14.8611 113.444 15.4983 114.916 15.4983C115.504 15.4983 116.191 15.4497 116.436 15.4006V10.7903Z" fill="#262626"/>
<path d="M124.479 5.29712C128.304 5.29712 128.942 7.45516 128.942 8.73036V16.774H128.844C127.421 16.774 126.195 15.5968 126.195 14.1745V8.77941C126.195 8.04371 125.901 7.11183 124.381 7.11183C123.694 7.11183 123.252 7.20993 122.811 7.35706C122.811 7.55325 122.811 16.774 122.811 16.774H120.064V6.13091C121.242 5.64044 123.154 5.29712 124.479 5.29712Z" fill="#262626"/>
<path d="M132.866 14.1256C132.866 15.5969 131.738 16.7741 130.169 16.7741V3.97296C130.169 2.50157 131.297 1.32446 132.866 1.32446V10.6433L136.251 5.59149H138.801L135.319 10.6923L139.439 16.7741H136.545L132.866 11.0847V14.1256Z" fill="#262626"/>
</svg>
